<?xml version="1.0" encoding="UTF-8"?>
<svg id="Ebene_1" data-name="Ebene 1" xmlns="http://www.w3.org/2000/svg" viewBox="0 0 2880 2880">
  <defs>
    <style>
      .cls-1 {
        stroke-width: 72.28px;
      }

      .cls-1, .cls-2 {
        stroke: #3558a4;
      }

      .cls-1, .cls-2, .cls-3 {
        fill: none;
        stroke-miterlimit: 10;
      }

      .cls-2, .cls-3 {
        stroke-width: 60.24px;
      }

      .cls-3 {
        stroke: #fff;
      }

      .cls-4 {
        fill: #3558a4;
        stroke-width: 0px;
      }
    </style>
  </defs>
  <g>
    <path class="cls-1" d="M2730.21,1464.63c0-115.02-93.24-208.26-208.26-208.26s-208.26,93.24-208.26,208.26"/>
    <circle class="cls-3" cx="2338.65" cy="1540.03" r="83.6"/>
    <circle class="cls-3" cx="2705.82" cy="1540.03" r="83.6"/>
    <circle class="cls-2" cx="2338.65" cy="1540.03" r="67"/>
    <circle class="cls-2" cx="2705.82" cy="1540.03" r="67"/>
  </g>
  <g>
    <path class="cls-4" d="M304.99,1362.76c-1.42-14.32-7.52-25.45-18.29-33.38-10.77-7.93-25.39-11.9-43.86-11.9-12.55,0-23.14,1.75-31.78,5.24-8.64,3.49-15.24,8.32-19.8,14.47-4.56,6.16-6.84,13.14-6.84,20.95-.24,6.51,1.15,12.19,4.17,17.05,3.02,4.85,7.19,9.03,12.52,12.52,5.33,3.49,11.48,6.51,18.47,9.06,6.98,2.55,14.44,4.71,22.37,6.48l32.67,7.81c15.86,3.55,30.42,8.29,43.68,14.2,13.26,5.92,24.74,13.2,34.45,21.84,9.7,8.64,17.25,18.82,22.64,30.54,5.39,11.72,8.14,25.15,8.26,40.3-.12,22.26-5.77,41.52-16.96,57.79-11.19,16.28-27.29,28.88-48.3,37.82-21.01,8.94-46.31,13.41-75.91,13.41s-54.9-4.5-76.62-13.49c-21.72-9-38.65-22.34-50.78-40.04-12.13-17.7-18.5-39.62-19.09-65.79h74.4c.83,12.19,4.35,22.34,10.56,30.45,6.21,8.11,14.56,14.2,25.04,18.29s22.34,6.13,35.6,6.13,24.35-1.89,34-5.68c9.65-3.79,17.13-9.06,22.46-15.8,5.33-6.75,7.99-14.5,7.99-23.26,0-8.17-2.4-15.03-7.19-20.6-4.79-5.56-11.78-10.3-20.95-14.21-9.17-3.91-20.39-7.46-33.65-10.65l-39.6-9.94c-30.66-7.46-54.87-19.12-72.62-34.98-17.76-15.86-26.58-37.23-26.46-64.1-.12-22.02,5.77-41.25,17.67-57.71,11.9-16.45,28.26-29.3,49.09-38.53,20.83-9.23,44.51-13.85,71.02-13.85s50.57,4.62,70.76,13.85c20.18,9.23,35.89,22.08,47.14,38.53,11.24,16.45,17.05,35.51,17.4,57.17h-73.69Z"/>
    <path class="cls-4" d="M489.01,1621.82l-74.22-272.73h76.53l42.26,183.24h2.49l44.03-183.24h75.11l44.74,182.17h2.31l41.55-182.17h76.35l-74.04,272.73h-80.08l-46.88-171.52h-3.37l-46.88,171.52h-79.9Z"/>
    <path class="cls-4" d="M903.45,1313.93c-11.25,0-20.89-3.76-28.94-11.27-8.05-7.52-12.07-16.54-12.07-27.08s4.02-19.38,12.07-26.9c8.05-7.52,17.64-11.27,28.76-11.27s21.04,3.76,29.03,11.27c7.99,7.52,11.98,16.49,11.98,26.9s-3.99,19.56-11.98,27.08c-7.99,7.52-17.61,11.27-28.85,11.27ZM865.27,1621.82v-272.73h75.64v272.73h-75.64Z"/>
    <path class="cls-4" d="M1152.94,1349.09v56.82h-168.32v-56.82h168.32ZM1023.14,1621.82v-292.44c0-19.77,3.88-36.16,11.63-49.18,7.75-13.02,18.38-22.79,31.87-29.3,13.49-6.51,28.82-9.77,45.99-9.77,11.6,0,22.22.89,31.87,2.66,9.65,1.78,16.84,3.37,21.57,4.79l-13.49,56.82c-2.96-.95-6.6-1.83-10.92-2.66-4.32-.83-8.73-1.24-13.23-1.24-11.13,0-18.88,2.57-23.26,7.72-4.38,5.15-6.57,12.34-6.57,21.57v291.02h-75.46Z"/>
    <path class="cls-4" d="M1349.17,1349.09v56.82h-164.24v-56.82h164.24ZM1222.21,1283.75h75.64v254.26c0,6.99,1.07,12.4,3.2,16.25,2.13,3.85,5.12,6.54,8.97,8.08,3.85,1.54,8.31,2.31,13.41,2.31,3.55,0,7.1-.33,10.65-.98,3.55-.65,6.27-1.15,8.17-1.51l11.9,56.29c-3.79,1.19-9.12,2.58-15.98,4.17-6.87,1.6-15.21,2.58-25.04,2.93-18.23.71-34.18-1.72-47.85-7.28s-24.3-14.21-31.87-25.92c-7.58-11.72-11.31-26.51-11.19-44.39v-264.21Z"/>
    <path class="cls-4" d="M1515.73,1627.14c-27.94,0-51.94-5.95-72-17.84-20.06-11.9-35.45-28.44-46.16-49.63-10.71-21.19-16.07-45.57-16.07-73.15s5.42-52.47,16.25-73.6c10.83-21.13,26.25-37.64,46.25-49.54,20-11.9,43.79-17.84,71.38-17.84,23.79,0,44.62,4.32,62.5,12.96,17.87,8.64,32.02,20.77,42.44,36.4,10.42,15.62,16.16,33.97,17.22,55.04h-71.38c-2.01-13.61-7.31-24.59-15.89-32.94-8.58-8.34-19.8-12.52-33.65-12.52-11.72,0-21.93,3.17-30.63,9.5-8.7,6.33-15.48,15.54-20.33,27.61-4.85,12.07-7.28,26.69-7.28,43.86s2.4,32.2,7.19,44.39c4.79,12.19,11.57,21.48,20.33,27.88,8.76,6.39,19,9.59,30.72,9.59,8.64,0,16.42-1.78,23.35-5.33,6.92-3.55,12.67-8.73,17.22-15.54,4.56-6.81,7.55-15,8.97-24.59h71.38c-1.18,20.84-6.84,39.15-16.96,54.95-10.12,15.8-24.06,28.14-41.82,37.02-17.75,8.88-38.77,13.32-63.03,13.32Z"/>
    <path class="cls-4" d="M1768.96,1626.97c-17.4,0-32.91-3.05-46.52-9.14-13.61-6.09-24.36-15.15-32.23-27.17-7.87-12.01-11.81-27.02-11.81-45.01,0-15.15,2.78-27.88,8.35-38.17,5.56-10.3,13.14-18.58,22.73-24.86,9.59-6.27,20.51-11.01,32.76-14.21,12.25-3.2,25.12-5.44,38.62-6.75,15.86-1.66,28.65-3.22,38.35-4.71,9.71-1.48,16.75-3.7,21.13-6.66,4.38-2.96,6.57-7.34,6.57-13.14v-1.07c0-11.24-3.52-19.94-10.57-26.1-7.04-6.15-17.02-9.23-29.92-9.23-13.61,0-24.44,2.99-32.49,8.97-8.05,5.98-13.38,13.47-15.98,22.46l-69.96-5.68c3.55-16.57,10.53-30.92,20.95-43.06,10.42-12.13,23.88-21.48,40.39-28.05,16.51-6.57,35.66-9.85,57.44-9.85,15.15,0,29.68,1.78,43.59,5.33,13.91,3.55,26.28,9.06,37.11,16.51s19.38,17.02,25.66,28.68c6.27,11.66,9.41,25.6,9.41,41.81v183.95h-71.73v-37.82h-2.13c-4.38,8.52-10.24,16.01-17.58,22.46-7.34,6.45-16.16,11.48-26.46,15.09-10.3,3.61-22.19,5.42-35.69,5.42ZM1790.62,1574.76c11.12,0,20.95-2.22,29.47-6.66s15.21-10.45,20.06-18.02c4.85-7.57,7.28-16.16,7.28-25.75v-28.94c-2.37,1.54-5.59,2.93-9.68,4.17-4.08,1.24-8.67,2.37-13.76,3.37-5.09,1.01-10.18,1.89-15.27,2.66-5.09.77-9.71,1.45-13.85,2.04-8.88,1.3-16.63,3.37-23.26,6.21-6.63,2.84-11.78,6.66-15.45,11.45-3.67,4.79-5.5,10.74-5.5,17.84,0,10.3,3.76,18.14,11.28,23.53,7.52,5.39,17.07,8.08,28.67,8.08Z"/>
    <path class="cls-4" d="M1986.31,1621.82v-272.73h73.33v47.58h2.84c4.97-16.93,13.32-29.74,25.04-38.44s25.21-13.05,40.48-13.05c3.79,0,7.87.24,12.25.71,4.38.47,8.23,1.13,11.54,1.95v67.12c-3.55-1.07-8.46-2.01-14.74-2.84-6.28-.83-12.02-1.24-17.22-1.24-11.13,0-21.04,2.4-29.74,7.19s-15.57,11.45-20.6,19.98c-5.03,8.52-7.55,18.35-7.55,29.47v154.3h-75.64Z"/>
  </g>
</svg>